<?xml version="1.0" encoding="UTF-8"?>
<svg version="1.1" xmlns="http://www.w3.org/2000/svg" width="186" height="222">
<path d="M0 0 C1.4062339 -0.00337653 2.81246494 -0.00823608 4.21868896 -0.01449585 C7.14705552 -0.02181843 10.07465332 -0.0113073 13.00292969 0.01220703 C16.74457528 0.04080039 20.48443558 0.02419818 24.226017 -0.00565529 C27.1224299 -0.02376487 30.01842244 -0.01795577 32.91484833 -0.00501633 C34.29427049 -0.0016978 35.67373168 -0.00571447 37.05310822 -0.01741409 C49.11669709 -0.09736499 49.11669709 -0.09736499 53.06713867 3.06298828 C56.23219982 6.86163213 56.62178491 9.82143857 56.234375 14.6640625 C54.66888024 18.45420771 52.68855555 20.51657806 49.234375 22.6640625 C46.62979126 23.03587341 46.62979126 23.03587341 43.64306641 23.03295898 C42.52155182 23.03984238 41.40003723 23.04672577 40.24453735 23.05381775 C38.43353043 23.04458031 38.43353043 23.04458031 36.5859375 23.03515625 C34.0286445 23.0525388 31.47135286 23.07012318 28.9140625 23.08789062 C24.88281053 23.10097523 20.85158098 23.10156225 16.8203125 23.09985352 C12.92941759 23.10342271 9.03921018 23.13076567 5.1484375 23.16015625 C3.94514801 23.15197372 2.74185852 23.1437912 1.50210571 23.13536072 C-6.94178736 23.19868142 -6.94178736 23.19868142 -13.765625 27.6640625 C-15.09470667 30.55479203 -15.09470667 30.55479203 -14.765625 33.6640625 C-12.99523051 36.41122637 -11.70270656 38.19552172 -8.765625 39.6640625 C-6.86359263 39.76368808 -4.95809619 39.79964306 -3.0534668 39.8059082 C-1.85429123 39.81294266 -0.65511566 39.81997711 0.58039856 39.82722473 C1.8854686 39.83138901 3.19053864 39.83555328 4.53515625 39.83984375 C5.89121779 39.85027526 7.24727202 39.86169904 8.60331726 39.87406921 C14.36026412 39.9263871 20.11708895 39.97434971 25.87426758 39.98999023 C29.39764163 40.00018834 32.92042498 40.02981875 36.44356346 40.07131004 C38.41561115 40.0893227 40.38781181 40.08699459 42.35993958 40.08406067 C57.47407679 40.28606773 71.27832164 44.95147699 82.234375 55.6640625 C92.75444508 68.63724309 97.36434826 82.45459864 95.796875 99.2265625 C93.36054257 113.96791567 85.15825837 125.79488137 73.234375 134.5390625 C64.16299424 140.5208128 56.38573526 142.78713617 45.54443359 142.88525391 C44.68045456 142.8967598 43.81647552 142.90826569 42.92631531 142.92012024 C40.0785167 142.95671979 37.23069583 142.98641816 34.3828125 143.015625 C32.40174048 143.03874838 30.42067156 143.06213878 28.43960571 143.08578491 C24.29212176 143.13418159 20.14461817 143.17912319 15.99707031 143.22167969 C10.67601414 143.27658635 5.35510855 143.34041389 0.03418541 143.40685463 C-4.05433385 143.45687299 -8.14289579 143.50201904 -12.23148727 143.54569626 C-14.19395074 143.56728238 -16.15639763 143.5904328 -18.11882401 143.6151619 C-20.85734806 143.64897299 -23.59586002 143.67619475 -26.33447266 143.70166016 C-27.14804733 143.71303513 -27.96162201 143.7244101 -28.79985046 143.73612976 C-32.06216192 143.76060211 -34.64667914 143.70371112 -37.765625 142.6640625 C-37.93589804 135.0002644 -38.09536983 127.33629263 -38.24780273 119.67211914 C-38.30073232 117.07213409 -38.35601394 114.47219569 -38.41381836 111.87231445 C-38.72616444 97.75155559 -38.98828713 83.74826323 -37.765625 69.6640625 C-35.68477314 70.69835304 -33.61900455 71.74325322 -31.57421875 72.84765625 C-30.40052734 73.46833984 -30.40052734 73.46833984 -29.203125 74.1015625 C-28.05650391 74.71837891 -28.05650391 74.71837891 -26.88671875 75.34765625 C-17.55109856 79.28520819 -8.80335988 80.09482703 1.2578125 80.0703125 C3.25057564 80.08686796 5.2433388 80.1034397 7.23609352 80.12097931 C11.39682685 80.1529391 15.55767397 80.15889703 19.71850586 80.16937256 C23.17001559 80.17906557 26.62126839 80.19449987 30.07266235 80.22497559 C32.6490618 80.24647439 35.22561186 80.25487405 37.80209351 80.24865723 C38.96745636 80.25876831 40.13281921 80.26887939 41.33349609 80.27929688 C42.86591446 80.28237854 42.86591446 80.28237854 44.42929077 80.28552246 C48.67470425 80.85843181 51.3048559 82.61060752 54.109375 85.7890625 C55.68820794 89.82385778 55.85464959 93.60294507 54.234375 97.6640625 C51.408742 101.08652887 49.64627879 102.44092099 45.21723938 103.14089966 C41.35714543 103.3400515 37.51204052 103.38363785 33.6484375 103.37109375 C32.22209572 103.38421986 30.7957725 103.3995269 29.36947632 103.41691589 C25.63102359 103.45667337 21.89305812 103.46695022 18.15441895 103.47094727 C14.33326523 103.4802964 10.51239573 103.5177209 6.69140625 103.55273438 C-0.79432355 103.61721606 -8.27960623 103.64793565 -15.765625 103.6640625 C-15.765625 108.9440625 -15.765625 114.2240625 -15.765625 119.6640625 C-7.87180107 119.73218197 0.02178947 119.78707483 7.91582966 119.81949902 C11.58242639 119.8350709 15.24880941 119.85615125 18.9152832 119.89038086 C22.46202342 119.92328065 26.00855972 119.94097903 29.5554409 119.94869423 C31.54877328 119.95683169 33.54202507 119.98020065 35.53523254 120.00395203 C45.78379631 120.00582412 55.36270605 119.1351846 63.515625 112.40234375 C69.07874272 106.77600878 72.19482767 99.92289732 72.671875 92.0390625 C72.50249952 85.03115181 70.10494019 78.14775812 65.625 72.7109375 C58.86538365 66.57146944 51.18597616 63.55127576 42.13989258 63.5222168 C40.90793655 63.51518234 39.67598053 63.50814789 38.4066925 63.50090027 C37.75081964 63.49908438 37.09494678 63.49726849 36.41919899 63.49539757 C34.35380222 63.48819369 32.2886378 63.47249654 30.22331238 63.45405579 C24.3522773 63.40178324 18.48137001 63.35367663 12.61010742 63.33813477 C9.01312561 63.32799141 5.41673112 63.29850769 1.81998253 63.25681496 C-0.20100475 63.23868572 -2.22214336 63.24114023 -4.24320984 63.24406433 C-15.54640556 63.09467123 -22.57993729 60.47290072 -30.81640625 52.75390625 C-37.62063366 45.4587927 -38.38933142 37.44260379 -38.171875 27.859375 C-37.68599748 20.22762732 -34.06779402 13.43584222 -28.515625 8.2265625 C-19.13599299 1.56088776 -11.47181954 -0.09796665 0 0 Z " fill="#0E0C0C" transform="translate(63.765625,59.3359375)"/>
<path d="M0 0 C0.76182587 0.01269928 1.52365173 0.02539856 2.30856323 0.03848267 C10.29804373 0.18422883 17.65749864 0.48050101 25.0625 3.75 C25.95839844 4.10320313 26.85429687 4.45640625 27.77734375 4.8203125 C40.22097195 10.72502184 49.62935737 20.96225852 55.01953125 33.57421875 C59.38832278 46.87694351 59.18167515 60.98868346 52.9375 73.625 C51.99922115 75.34442966 51.04831402 77.05737592 50.0625 78.75 C43.69925475 75.13451974 37.38075213 71.44342818 31.0625 67.75 C31.60037121 64.90073631 32.22130144 62.26425443 33.125 59.5 C35.23451999 51.06192004 34.15888849 44.43390884 30.0625 36.75 C26.56552016 31.32864664 22.22600382 27.76478332 16.0625 25.75 C9.10892405 24.41506577 2.1144141 24.55179885 -4.9453125 24.51171875 C-5.61771847 24.50764322 -6.29012444 24.5035677 -6.98290634 24.49936867 C-10.54459056 24.47859649 -14.10623731 24.46425879 -17.66796875 24.45483398 C-21.30890309 24.4438079 -24.94921991 24.40942735 -28.58993721 24.36966228 C-31.42303444 24.3432658 -34.25598974 24.33512187 -37.08919907 24.33155251 C-39.07250505 24.32443517 -41.05571305 24.29810043 -43.03884888 24.27116394 C-54.01884573 24.29711684 -63.987857 26.15552621 -72.9375 32.75 C-73.9275 32.75 -74.9175 32.75 -75.9375 32.75 C-76.13305932 30.02119539 -76.31920447 27.29228931 -76.5 24.5625 C-76.55607422 23.79357422 -76.61214844 23.02464844 -76.66992188 22.23242188 C-76.92891557 18.20938647 -77.00323607 14.68927628 -75.9375 10.75 C-76.5975 10.75 -77.2575 10.75 -77.9375 10.75 C-77.6075 9.1 -77.2775 7.45 -76.9375 5.75 C-75.6175 5.42 -74.2975 5.09 -72.9375 4.75 C-72.9375 4.09 -72.9375 3.43 -72.9375 2.75 C-70.06616072 1.12773085 -67.95389752 0.48869087 -64.66430664 0.4152832 C-63.82174316 0.39224625 -62.97917969 0.36920929 -62.11108398 0.34547424 C-61.19915283 0.33072556 -60.28722168 0.31597687 -59.34765625 0.30078125 C-58.38730469 0.2784996 -57.42695312 0.25621796 -56.4375 0.23326111 C-53.29177557 0.16479286 -50.14607204 0.11230322 -47 0.0625 C-45.39522293 0.03355652 -45.39522293 0.03355652 -43.75802612 0.00402832 C-29.16816158 -0.25389777 -14.58897532 -0.32141965 0 0 Z " fill="#131212" transform="translate(101.9375,19.25)"/>
<path d="M0 0 C-2.75593138 1.37796569 -5.01779814 1.16298939 -8.10205078 1.20532227 C-9.38322784 1.22526749 -10.66440491 1.24521271 -11.98440552 1.26576233 C-13.38803994 1.28274669 -14.79167563 1.29962549 -16.1953125 1.31640625 C-17.62735597 1.3369754 -19.05939337 1.35797186 -20.49142456 1.37937927 C-24.26266563 1.43460403 -28.03396152 1.48401147 -31.80529785 1.53222656 C-35.65280036 1.58243867 -39.50022313 1.63812624 -43.34765625 1.69335938 C-50.8983719 1.8009459 -58.44915426 1.9018838 -66 2 C-66 7.28 -66 12.56 -66 18 C-58.10617607 18.06811947 -50.21258553 18.12301233 -42.31854534 18.15543652 C-38.65194861 18.1710084 -34.98556559 18.19208875 -31.3190918 18.22631836 C-27.77235158 18.25921815 -24.22581528 18.27691653 -20.6789341 18.28463173 C-18.68560172 18.29276919 -16.69234993 18.31613815 -14.69914246 18.33988953 C-4.98590149 18.34166384 3.04460603 16.67206095 12 13 C12 13.99 12 14.98 12 16 C2.03224798 19.3971206 -6.75661359 20.57011991 -17.33203125 20.42578125 C-18.74451736 20.42084132 -20.1570101 20.41755291 -21.56950378 20.41581726 C-24.49488037 20.40826178 -27.41975266 20.38794496 -30.3449707 20.35668945 C-34.09987369 20.31663963 -37.85445499 20.29899498 -41.60954762 20.28938007 C-45.20458563 20.27944947 -48.79954527 20.25958649 -52.39453125 20.23828125 C-53.07931864 20.2348855 -53.76410603 20.23148975 -54.46964455 20.2279911 C-56.3910179 20.2164777 -58.31233831 20.19695268 -60.23364258 20.17700195 C-61.87240105 20.16223564 -61.87240105 20.16223564 -63.54426575 20.14717102 C-66 20 -66 20 -67 19 C-67.08651611 17.58429877 -67.10704904 16.164405 -67.09765625 14.74609375 C-67.09443359 13.89208984 -67.09121094 13.03808594 -67.08789062 12.15820312 C-67.07951172 11.26037109 -67.07113281 10.36253906 -67.0625 9.4375 C-67.05798828 8.53580078 -67.05347656 7.63410156 -67.04882812 6.70507812 C-67.03700225 4.46998686 -67.0205222 2.23502563 -67 0 C-58.70734863 -0.15381755 -50.41462397 -0.30199867 -42.12174511 -0.4429636 C-38.27113006 -0.50859516 -34.42056968 -0.57617561 -30.57006836 -0.64819336 C-26.85487479 -0.71760894 -23.13962489 -0.78192689 -19.42428017 -0.84269524 C-18.00606387 -0.86679075 -16.58787767 -0.89273015 -15.16972923 -0.92053413 C-13.1851002 -0.95913098 -11.2003363 -0.99059414 -9.21557617 -1.02172852 C-8.08528488 -1.04171402 -6.95499359 -1.06169952 -5.79045105 -1.08229065 C-3 -1 -3 -1 0 0 Z " fill="#807E7C" transform="translate(114,161)"/>
<path d="M0 0 C3 2 3 2 3.6171875 3.98828125 C4.03783337 7.7804675 4.29215132 10.29268629 2.8125 13.875 C0.26778335 16.8584609 -1.61649971 18.80199026 -5.59785461 19.37181091 C-6.58045761 19.37084915 -7.56306061 19.36988739 -8.57543945 19.36889648 C-9.69372635 19.37577988 -10.81201324 19.38266327 -11.96418762 19.38975525 C-13.16838852 19.38359695 -14.37258942 19.37743866 -15.61328125 19.37109375 C-18.16601695 19.38847843 -20.7187513 19.40606279 -23.27148438 19.42382812 C-27.29389403 19.43389704 -31.31620622 19.43750175 -35.33862305 19.43579102 C-39.22211181 19.43936456 -43.10491464 19.46672579 -46.98828125 19.49609375 C-48.18640945 19.48791122 -49.38453766 19.4797287 -50.61897278 19.47129822 C-57.29972351 19.53074882 -61.55734257 20.01234468 -67 24 C-66.25 22.0625 -66.25 22.0625 -65 20 C-62.875 19.25 -62.875 19.25 -61 19 C-61 18.34 -61 17.68 -61 17 C-41.86 17 -22.72 17 -3 17 C-3 16.34 -3 15.68 -3 15 C-1.68 14.34 -0.36 13.68 1 13 C1.02708567 11.39592672 1.04643483 9.7917215 1.0625 8.1875 C1.07410156 7.29417969 1.08570312 6.40085937 1.09765625 5.48046875 C1.11009967 2.86586209 1.11009967 2.86586209 0 0 Z " fill="#403F3D" transform="translate(116,63)"/>
<path d="M0 0 C0.33 0 0.66 0 1 0 C1.33 8.25 1.66 16.5 2 25 C4.31 24.34 6.62 23.68 9 23 C7.06745228 25.0245738 5.36841312 26.42105792 3 28 C2.01 28 1.02 28 0 28 C-0.19555932 25.27119539 -0.38170447 22.54228931 -0.5625 19.8125 C-0.61857422 19.04357422 -0.67464844 18.27464844 -0.73242188 17.48242188 C-0.99141557 13.45938647 -1.06573607 9.93927628 0 6 C-0.66 6 -1.32 6 -2 6 C-1.125 1.125 -1.125 1.125 0 0 Z " fill="#636260" transform="translate(26,24)"/>
<path d="M0 0 C3 2 3 2 3.6171875 3.98828125 C4.04062581 7.80564181 4.27474605 10.32036503 2.8125 13.9375 C0.97484325 16.02862665 -0.41495894 17.01946718 -3 18 C-3 17.01 -3 16.02 -3 15 C-1.68 14.34 -0.36 13.68 1 13 C1.02708567 11.39592672 1.04643483 9.7917215 1.0625 8.1875 C1.07410156 7.29417969 1.08570312 6.40085937 1.09765625 5.48046875 C1.11009967 2.86586209 1.11009967 2.86586209 0 0 Z " fill="#757573" transform="translate(116,63)"/>
<path d="M0 0 C0.33 0.66 0.66 1.32 1 2 C-0.109375 4.3125 -0.109375 4.3125 -1.75 7 C-2.28109375 7.886875 -2.8121875 8.77375 -3.359375 9.6875 C-5 12 -5 12 -8 14 C-8 12.35 -8 10.7 -8 9 C-7.34 9 -6.68 9 -6 9 C-5.67 8.34 -5.34 7.68 -5 7 C-4.00692179 5.66150329 -3.00642948 4.32848691 -2 3 C-1.34 2.01 -0.68 1.02 0 0 Z " fill="#747472" transform="translate(154,171)"/>
<path d="M0 0 C0.33 0 0.66 0 1 0 C1 5.28 1 10.56 1 16 C-1.56687367 12.1496895 -0.83288724 10.41430237 0 6 C-0.66 6 -1.32 6 -2 6 C-1.125 1.125 -1.125 1.125 0 0 Z " fill="#A09E9C" transform="translate(26,24)"/>
<path d="M0 0 C0 0.66 0 1.32 0 2 C-0.7425 2.4125 -1.485 2.825 -2.25 3.25 C-5.54354223 5.34589051 -6.90774484 7.75339716 -9 11 C-9.66 11 -10.32 11 -11 11 C-9.7672897 6.34309441 -5.30909278 0 0 0 Z " fill="#928F8C" transform="translate(41,65)"/>
<path d="M0 0 C2.96404505 2.80804268 5.44499019 5.18315774 7 9 C4.625 8.4375 4.625 8.4375 2 7 C0.6875 3.375 0.6875 3.375 0 0 Z " fill="#666463" transform="translate(145,36)"/>
<path d="M0 0 C2.79872437 2.52788007 4.45773019 4.20411134 5 8 C4.34 8 3.68 8 3 8 C0.8125 5.6875 0.8125 5.6875 -1 3 C-0.67 2.01 -0.34 1.02 0 0 Z " fill="#676664" transform="translate(149,121)"/>
<path d="" fill="#FFFFFF" transform="translate(0,0)"/>
<path d="" fill="#FFFFFF" transform="translate(0,0)"/>
<path d="" fill="#FFFFFF" transform="translate(0,0)"/>
<path d="" fill="#FFFFFF" transform="translate(0,0)"/>
<path d="" fill="#FFFFFF" transform="translate(0,0)"/>
<path d="" fill="#FFFFFF" transform="translate(0,0)"/>
<path d="" fill="#FFFFFF" transform="translate(0,0)"/>
<path d="" fill="#FFFFFF" transform="translate(0,0)"/>
<path d="" fill="#FFFFFF" transform="translate(0,0)"/>
<path d="" fill="#FFFFFF" transform="translate(0,0)"/>
<path d="" fill="#FFFFFF" transform="translate(0,0)"/>
<path d="" fill="#FFFFFF" transform="translate(0,0)"/>
<path d="" fill="#FFFFFF" transform="translate(0,0)"/>
<path d="" fill="#FFFFFF" transform="translate(0,0)"/>
<path d="" fill="#FFFFFF" transform="translate(0,0)"/>
<path d="" fill="#FFFFFF" transform="translate(0,0)"/>
<path d="" fill="#FFFFFF" transform="translate(0,0)"/>
<path d="" fill="#FFFFFF" transform="translate(0,0)"/>
<path d="" fill="#FFFFFF" transform="translate(0,0)"/>
<path d="" fill="#FFFFFF" transform="translate(0,0)"/>
<path d="" fill="#FFFFFF" transform="translate(0,0)"/>
<path d="" fill="#FFFFFF" transform="translate(0,0)"/>
<path d="" fill="#FFFFFF" transform="translate(0,0)"/>
<path d="" fill="#FFFFFF" transform="translate(0,0)"/>
<path d="" fill="#FFFFFF" transform="translate(0,0)"/>
<path d="" fill="#FFFFFF" transform="translate(0,0)"/>
<path d="" fill="#FFFFFF" transform="translate(0,0)"/>
<path d="" fill="#FFFFFF" transform="translate(0,0)"/>
<path d="" fill="#FFFFFF" transform="translate(0,0)"/>
<path d="" fill="#FFFFFF" transform="translate(0,0)"/>
<path d="" fill="#FFFFFF" transform="translate(0,0)"/>
<path d="" fill="#FFFFFF" transform="translate(0,0)"/>
<path d="" fill="#FFFFFF" transform="translate(0,0)"/>
<path d="" fill="#FFFFFF" transform="translate(0,0)"/>
<path d="" fill="#FFFFFF" transform="translate(0,0)"/>
<path d="" fill="#FFFFFF" transform="translate(0,0)"/>
<path d="" fill="#FFFFFF" transform="translate(0,0)"/>
<path d="" fill="#FFFFFF" transform="translate(0,0)"/>
<path d="" fill="#FFFFFF" transform="translate(0,0)"/>
<path d="" fill="#FFFFFF" transform="translate(0,0)"/>
<path d="" fill="#FFFFFF" transform="translate(0,0)"/>
<path d="" fill="#FFFFFF" transform="translate(0,0)"/>
<path d="" fill="#00FFFF" transform="translate(0,0)"/>
<path d="" fill="#FFFFFF" transform="translate(0,0)"/>
<path d="" fill="#FFFFFF" transform="translate(0,0)"/>
<path d="" fill="#FFFFFF" transform="translate(0,0)"/>
<path d="" fill="#FFFFFF" transform="translate(0,0)"/>
<path d="" fill="#FFFFFF" transform="translate(0,0)"/>
<path d="" fill="#FEFFFF" transform="translate(0,0)"/>
<path d="" fill="#FFFFFF" transform="translate(0,0)"/>
<path d="" fill="#FFFFFF" transform="translate(0,0)"/>
<path d="" fill="#FFFFFF" transform="translate(0,0)"/>
<path d="" fill="#FFFFFF" transform="translate(0,0)"/>
<path d="" fill="#FFFFFF" transform="translate(0,0)"/>
</svg>
